<mxfile host="Electron" agent="Mozilla/5.0 (Windows NT 10.0; Win64; x64) AppleWebKit/537.36 (KHTML, like Gecko) draw.io/26.0.4 Chrome/128.0.6613.186 Electron/32.2.5 Safari/537.36" version="26.0.4">
  <diagram name="Page-1" id="pDxdiUhoBnfyF4EKzBz4">
    <mxGraphModel dx="1050" dy="621" grid="1" gridSize="10" guides="1" tooltips="1" connect="1" arrows="1" fold="1" page="1" pageScale="1" pageWidth="850" pageHeight="1100" math="0" shadow="0">
      <root>
        <mxCell id="0" />
        <mxCell id="1" parent="0" />
        <mxCell id="a7WM_dcmOqg4czNciiiy-3" style="edgeStyle=orthogonalEdgeStyle;rounded=0;orthogonalLoop=1;jettySize=auto;html=1;exitX=0.5;exitY=1;exitDx=0;exitDy=0;entryX=0.5;entryY=0;entryDx=0;entryDy=0;" edge="1" parent="1" source="a7WM_dcmOqg4czNciiiy-1" target="a7WM_dcmOqg4czNciiiy-2">
          <mxGeometry relative="1" as="geometry" />
        </mxCell>
        <mxCell id="a7WM_dcmOqg4czNciiiy-1" value="Connect with ACQ&lt;div&gt;Through ModbusTCP&lt;/div&gt;" style="shape=parallelogram;perimeter=parallelogramPerimeter;whiteSpace=wrap;html=1;fixedSize=1;fillColor=#dae8fc;strokeColor=#6c8ebf;" vertex="1" parent="1">
          <mxGeometry x="230" y="220" width="160" height="60" as="geometry" />
        </mxCell>
        <mxCell id="a7WM_dcmOqg4czNciiiy-5" value="" style="edgeStyle=orthogonalEdgeStyle;rounded=0;orthogonalLoop=1;jettySize=auto;html=1;" edge="1" parent="1" source="a7WM_dcmOqg4czNciiiy-2" target="a7WM_dcmOqg4czNciiiy-4">
          <mxGeometry relative="1" as="geometry" />
        </mxCell>
        <mxCell id="a7WM_dcmOqg4czNciiiy-2" value="Poll for record count&lt;div&gt;in ACQ by reading&lt;/div&gt;&lt;div&gt;Modbus Register&lt;/div&gt;" style="shape=parallelogram;perimeter=parallelogramPerimeter;whiteSpace=wrap;html=1;fixedSize=1;fillColor=#dae8fc;strokeColor=#6c8ebf;" vertex="1" parent="1">
          <mxGeometry x="230" y="310" width="160" height="60" as="geometry" />
        </mxCell>
        <mxCell id="a7WM_dcmOqg4czNciiiy-7" value="" style="edgeStyle=orthogonalEdgeStyle;rounded=0;orthogonalLoop=1;jettySize=auto;html=1;" edge="1" parent="1" source="a7WM_dcmOqg4czNciiiy-4" target="a7WM_dcmOqg4czNciiiy-6">
          <mxGeometry relative="1" as="geometry" />
        </mxCell>
        <mxCell id="a7WM_dcmOqg4czNciiiy-4" value="Data record exist ?" style="rhombus;whiteSpace=wrap;html=1;fillColor=#dae8fc;strokeColor=#6c8ebf;" vertex="1" parent="1">
          <mxGeometry x="210" y="400" width="200" height="60" as="geometry" />
        </mxCell>
        <mxCell id="a7WM_dcmOqg4czNciiiy-10" value="" style="edgeStyle=orthogonalEdgeStyle;rounded=0;orthogonalLoop=1;jettySize=auto;html=1;" edge="1" parent="1" source="a7WM_dcmOqg4czNciiiy-6" target="a7WM_dcmOqg4czNciiiy-9">
          <mxGeometry relative="1" as="geometry" />
        </mxCell>
        <mxCell id="a7WM_dcmOqg4czNciiiy-6" value="Read Events and Waves.&lt;div&gt;Save each event and wave in&lt;/div&gt;&lt;div&gt;each file until record count.&lt;/div&gt;" style="shape=parallelogram;perimeter=parallelogramPerimeter;whiteSpace=wrap;html=1;fixedSize=1;fillColor=#dae8fc;strokeColor=#6c8ebf;" vertex="1" parent="1">
          <mxGeometry x="210" y="480" width="200" height="60" as="geometry" />
        </mxCell>
        <mxCell id="a7WM_dcmOqg4czNciiiy-12" style="edgeStyle=orthogonalEdgeStyle;rounded=0;orthogonalLoop=1;jettySize=auto;html=1;exitX=0;exitY=0.5;exitDx=0;exitDy=0;entryX=0;entryY=0.5;entryDx=0;entryDy=0;" edge="1" parent="1" source="a7WM_dcmOqg4czNciiiy-9" target="a7WM_dcmOqg4czNciiiy-1">
          <mxGeometry relative="1" as="geometry">
            <Array as="points">
              <mxPoint x="160" y="590" />
              <mxPoint x="160" y="250" />
            </Array>
          </mxGeometry>
        </mxCell>
        <mxCell id="a7WM_dcmOqg4czNciiiy-9" value="Disconnect&lt;div&gt;Sleep 1 sec&lt;/div&gt;" style="shape=parallelogram;perimeter=parallelogramPerimeter;whiteSpace=wrap;html=1;fixedSize=1;fillColor=#dae8fc;strokeColor=#6c8ebf;" vertex="1" parent="1">
          <mxGeometry x="250" y="560" width="120" height="60" as="geometry" />
        </mxCell>
        <mxCell id="a7WM_dcmOqg4czNciiiy-13" value="&lt;font style=&quot;font-size: 14px;&quot; face=&quot;Lucida Console&quot;&gt;Part of subsystem Thread&lt;/font&gt;" style="rounded=1;whiteSpace=wrap;html=1;arcSize=6;fillColor=#ffe6cc;strokeColor=#d79b00;" vertex="1" parent="1">
          <mxGeometry x="205" y="180" width="210" height="30" as="geometry" />
        </mxCell>
      </root>
    </mxGraphModel>
  </diagram>
</mxfile>
